<svg xmlns="http://www.w3.org/2000/svg" width="425" height="102" fill="none">
  <g clip-path="url(#a)">
    <path fill="#fff" d="M112.395 3.073h12.296l9.714 28.895 9.345-28.895h11.066l-15.37 43.036H128.38L112.395 3.073Zm46.722 10.451h9.468V46.11h-9.468V13.525Zm4.734-3.073c-1.762 0-3.135-.451-4.119-1.353-.943-.943-1.414-2.131-1.414-3.566 0-1.434.471-2.603 1.414-3.504.984-.943 2.357-1.414 4.119-1.414 1.762 0 3.115.471 4.058 1.414.983.901 1.475 2.07 1.475 3.504 0 1.435-.492 2.623-1.475 3.566-.943.902-2.296 1.352-4.058 1.352Zm24.31 36.457c-2.131 0-4.058-.349-5.779-1.045a12.28 12.28 0 0 1-4.427-3.197c-1.229-1.394-2.172-3.136-2.828-5.226-.656-2.09-.983-4.529-.983-7.316v-1.23c0-5.246 1.209-9.242 3.627-11.988 2.459-2.787 5.922-4.18 10.39-4.18 1.844 0 3.586.43 5.226 1.29 1.68.82 3.074 2.03 4.18 3.628V3.073h9.468v43.036h-8.73v-4.427c-.41.656-.943 1.312-1.598 1.967a10.411 10.411 0 0 1-2.214 1.66 12.17 12.17 0 0 1-2.889 1.168 13.21 13.21 0 0 1-3.443.43Zm2.275-7.808c2.008 0 3.688-.697 5.041-2.09 1.393-1.394 2.09-3.382 2.09-5.964v-3.074c0-2.46-.697-4.303-2.09-5.533-1.353-1.27-3.033-1.906-5.041-1.906-1.968 0-3.566.697-4.796 2.09-1.188 1.353-1.783 3.443-1.783 6.271v1.23c0 2.95.615 5.185 1.845 6.701 1.27 1.517 2.848 2.275 4.734 2.275Zm38.439 7.808c-2.378 0-4.611-.328-6.702-.984-2.049-.697-3.832-1.742-5.348-3.135-1.517-1.394-2.705-3.136-3.566-5.226-.861-2.131-1.291-4.611-1.291-7.44v-1.229c0-2.705.41-5.061 1.229-7.07.861-2.008 2.009-3.689 3.443-5.041 1.476-1.353 3.197-2.357 5.165-3.013 2.008-.696 4.16-1.045 6.455-1.045 5.369 0 9.427 1.394 12.173 4.18 2.746 2.747 4.119 6.743 4.119 11.99v3.38h-22.87c.041 1.271.266 2.357.676 3.26.41.86.943 1.577 1.598 2.15a6.688 6.688 0 0 0 2.214 1.292 9.79 9.79 0 0 0 2.705.369c1.803 0 3.217-.267 4.242-.8 1.065-.573 1.762-1.331 2.09-2.274h8.73c-.656 3.566-2.275 6.23-4.857 7.992-2.582 1.763-5.984 2.644-10.205 2.644Zm-.308-26.682c-.86 0-1.701.102-2.52.307a6.175 6.175 0 0 0-2.152 1.045c-.615.451-1.127 1.045-1.537 1.783-.369.738-.574 1.64-.615 2.705h13.526c0-1.147-.185-2.09-.554-2.828-.369-.738-.86-1.332-1.475-1.783-.574-.45-1.271-.758-2.091-.922a10.604 10.604 0 0 0-2.582-.307Zm36.264 26.682c-2.296 0-4.447-.328-6.456-.984-2.008-.697-3.771-1.742-5.287-3.135-1.517-1.394-2.705-3.136-3.566-5.226-.861-2.131-1.291-4.611-1.291-7.44v-1.229c0-2.664.43-5 1.291-7.008.861-2.009 2.049-3.69 3.566-5.042 1.516-1.352 3.279-2.377 5.287-3.074 2.009-.696 4.16-1.045 6.456-1.045 2.295 0 4.447.349 6.455 1.045 2.008.697 3.771 1.722 5.287 3.074 1.517 1.353 2.705 3.033 3.566 5.042.861 2.008 1.291 4.344 1.291 7.008v1.23c0 2.787-.43 5.246-1.291 7.377-.861 2.09-2.049 3.833-3.566 5.226-1.516 1.394-3.279 2.439-5.287 3.136-2.008.696-4.16 1.045-6.455 1.045Zm0-7.87c2.213 0 3.914-.799 5.102-2.397 1.189-1.599 1.783-3.771 1.783-6.517v-1.23c0-2.459-.594-4.447-1.783-5.963-1.188-1.558-2.889-2.336-5.102-2.336-2.214 0-3.915.778-5.103 2.336-1.189 1.516-1.783 3.504-1.783 5.963v1.23c0 2.828.594 5.02 1.783 6.578 1.188 1.558 2.889 2.336 5.103 2.336Z"/>
    <path fill="#20BDFF" d="M297.698 12.172H284.48v-9.1h37.502v9.1h-13.218v33.937h-11.066V12.172Zm39.366 34.736c-2.377 0-4.611-.328-6.701-.984-2.049-.697-3.832-1.742-5.349-3.135-1.516-1.394-2.705-3.136-3.566-5.226-.86-2.131-1.291-4.611-1.291-7.44v-1.229c0-2.705.41-5.061 1.23-7.07.861-2.008 2.008-3.689 3.443-5.041 1.475-1.353 3.197-2.357 5.164-3.013 2.008-.696 4.16-1.045 6.455-1.045 5.37 0 9.427 1.394 12.173 4.18 2.746 2.747 4.119 6.743 4.119 11.99v3.38h-22.87c.041 1.271.266 2.357.676 3.26.41.86.943 1.577 1.599 2.15a6.683 6.683 0 0 0 2.213 1.292 9.795 9.795 0 0 0 2.705.369c1.803 0 3.218-.267 4.242-.8 1.066-.573 1.763-1.331 2.09-2.274h8.731c-.656 3.566-2.275 6.23-4.857 7.992-2.582 1.763-5.984 2.644-10.206 2.644Zm-.307-26.682c-.861 0-1.701.102-2.521.307a6.175 6.175 0 0 0-2.152 1.045c-.615.451-1.127 1.045-1.537 1.783-.369.738-.574 1.64-.615 2.705h13.526c0-1.147-.184-2.09-.553-2.828-.369-.738-.861-1.332-1.476-1.783-.574-.45-1.27-.758-2.09-.922a10.616 10.616 0 0 0-2.582-.307Zm36.263 26.682c-2.418 0-4.652-.349-6.701-1.045-2.009-.697-3.751-1.742-5.226-3.136-1.476-1.393-2.623-3.135-3.443-5.226-.82-2.09-1.229-4.549-1.229-7.377v-1.23c0-2.582.43-4.877 1.291-6.885.901-2.009 2.09-3.69 3.565-5.042 1.517-1.393 3.279-2.438 5.288-3.135 2.008-.738 4.16-1.107 6.455-1.107 2.459 0 4.611.328 6.455.984 1.886.656 3.464 1.557 4.734 2.705a11.567 11.567 0 0 1 2.951 3.935 13.903 13.903 0 0 1 1.23 4.857h-9.714c-.328-1.476-.943-2.603-1.844-3.382-.861-.82-2.132-1.23-3.812-1.23-2.008 0-3.668.697-4.98 2.09-1.27 1.353-1.906 3.423-1.906 6.21v1.23c0 3.033.615 5.267 1.845 6.701 1.27 1.435 2.951 2.152 5.041 2.152 1.434 0 2.644-.369 3.627-1.107 1.025-.778 1.701-1.926 2.029-3.442h9.714c-.123 1.926-.574 3.668-1.353 5.225a11.646 11.646 0 0 1-3.197 3.873c-1.311 1.066-2.889 1.906-4.734 2.521-1.803.574-3.832.86-6.086.86Zm19.993-43.835h9.468v14.57c.328-.532.778-1.086 1.352-1.66.574-.573 1.271-1.106 2.09-1.598.861-.492 1.845-.881 2.951-1.168 1.107-.328 2.337-.492 3.689-.492 3.894 0 6.824 1.066 8.792 3.197 2.008 2.09 3.012 5.062 3.012 8.915v21.272h-9.468v-19.06c0-2.13-.471-3.729-1.414-4.794-.901-1.107-2.397-1.66-4.488-1.66-2.295 0-3.955.614-4.979 1.844-1.025 1.23-1.537 2.767-1.537 4.61v19.06h-9.468V3.073Z"/>
    <path fill="url(#b)" d="m33.878 100.149-30.3-23.052C1.306 75.334.001 72.688.001 69.875v-60.8C.001 2.609 6.65-1.8 12.626.719l71.246 30.022c5.47 2.31 7.28 9.112 3.703 13.856L46.63 98.427c-3.03 3.989-8.754 4.745-12.751 1.722Z"/>
    <path fill="#ADADAD" d="m113.918 96.55 11.089-9.623c.844-.712 1.531-1.36 2.059-1.94.554-.58.99-1.122 1.307-1.624.317-.528.528-1.043.633-1.544a6.364 6.364 0 0 0 .198-1.624c0-1.557-.462-2.838-1.386-3.841-.924-1.03-2.191-1.545-3.801-1.545-1.928 0-3.406.528-4.436 1.585-1.029 1.03-1.544 2.494-1.544 4.395h-3.723c0-1.346.225-2.587.673-3.722.476-1.162 1.136-2.152 1.981-2.97a9.202 9.202 0 0 1 3.088-1.901c1.188-.475 2.508-.713 3.961-.713 1.399 0 2.653.224 3.762.673 1.109.422 2.046 1.03 2.811 1.822a7.566 7.566 0 0 1 1.743 2.732c.396 1.056.594 2.218.594 3.485 0 .95-.145 1.835-.436 2.654a9.426 9.426 0 0 1-1.227 2.336 13.839 13.839 0 0 1-1.862 2.178 50.25 50.25 0 0 1-2.376 2.138l-8.276 6.852h14.573V99.6h-19.405v-3.05Zm33.664 3.446a10.99 10.99 0 0 1-3.841-.673c-1.188-.45-2.231-1.215-3.128-2.297-.898-1.11-1.611-2.574-2.139-4.396-.528-1.848-.792-4.145-.792-6.89v-.793c0-2.56.264-4.699.792-6.415.528-1.716 1.241-3.089 2.139-4.119.897-1.056 1.94-1.808 3.128-2.257a10.994 10.994 0 0 1 3.841-.673c1.347 0 2.614.224 3.802.673 1.215.449 2.271 1.201 3.168 2.257.898 1.03 1.611 2.403 2.139 4.119.528 1.716.792 3.855.792 6.415v.792c0 2.746-.264 5.043-.792 6.891-.528 1.822-1.241 3.287-2.139 4.396-.897 1.082-1.953 1.848-3.168 2.297a10.665 10.665 0 0 1-3.802.673Zm0-3.247a6.34 6.34 0 0 0 2.337-.436c.766-.317 1.426-.871 1.98-1.663.581-.819 1.03-1.94 1.346-3.366.344-1.426.515-3.274.515-5.545v-.792c0-2.059-.171-3.749-.515-5.069-.316-1.32-.765-2.362-1.346-3.128-.554-.766-1.214-1.294-1.98-1.584a6.332 6.332 0 0 0-2.337-.436c-.844 0-1.636.145-2.376.436-.739.29-1.399.818-1.98 1.584-.554.766-1.003 1.808-1.346 3.128-.317 1.32-.475 3.01-.475 5.07v.791c0 2.27.158 4.119.475 5.545.343 1.425.792 2.547 1.346 3.366.581.792 1.241 1.346 1.98 1.663.74.29 1.532.436 2.376.436Zm13.866-.199 11.088-9.623c.845-.712 1.531-1.36 2.059-1.94.555-.58.99-1.122 1.307-1.624.317-.528.528-1.043.634-1.544a6.364 6.364 0 0 0 .198-1.624c0-1.557-.462-2.838-1.386-3.841-.924-1.03-2.192-1.545-3.802-1.545-1.927 0-3.406.528-4.435 1.585-1.03 1.03-1.545 2.494-1.545 4.395h-3.722c0-1.346.224-2.587.673-3.722.475-1.162 1.135-2.152 1.98-2.97a9.206 9.206 0 0 1 3.089-1.901c1.188-.475 2.508-.713 3.96-.713 1.399 0 2.653.224 3.762.673 1.109.422 2.046 1.03 2.812 1.822a7.577 7.577 0 0 1 1.742 2.732c.396 1.056.594 2.218.594 3.485a7.89 7.89 0 0 1-.435 2.654 9.463 9.463 0 0 1-1.228 2.336 13.883 13.883 0 0 1-1.861 2.178c-.713.686-1.505 1.4-2.376 2.138l-8.277 6.852h14.573V99.6h-19.404v-3.05Zm32.674 3.446c-1.505 0-2.852-.198-4.04-.594-1.161-.423-2.151-.99-2.97-1.703a7.113 7.113 0 0 1-1.861-2.495 7.804 7.804 0 0 1-.634-3.128h3.723c0 1.346.462 2.455 1.386 3.326.924.845 2.389 1.267 4.396 1.267 2.006 0 3.471-.435 4.395-1.306.924-.898 1.386-2.06 1.386-3.485 0-1.479-.475-2.667-1.425-3.564-.924-.925-2.376-1.387-4.356-1.387h-2.97V83.76h2.97c1.901 0 3.273-.396 4.118-1.188.845-.818 1.267-1.94 1.267-3.366 0-1.373-.409-2.442-1.227-3.207-.819-.793-2.205-1.189-4.158-1.189-1.875 0-3.248.41-4.119 1.228-.845.792-1.267 1.782-1.267 2.97h-3.723c0-1.03.198-2.006.594-2.93a6.887 6.887 0 0 1 1.782-2.376c.793-.687 1.743-1.228 2.852-1.624 1.135-.396 2.429-.594 3.881-.594s2.745.198 3.881.594c1.135.396 2.085.924 2.851 1.584a6.355 6.355 0 0 1 1.782 2.337c.396.897.594 1.834.594 2.811 0 1.584-.422 2.93-1.267 4.04-.819 1.082-1.98 1.847-3.485 2.296 1.584.502 2.838 1.32 3.762 2.456.924 1.135 1.386 2.692 1.386 4.673a7.32 7.32 0 0 1-.634 3.01 7.208 7.208 0 0 1-1.861 2.455c-.792.686-1.782 1.24-2.97 1.663-1.188.396-2.534.594-4.039.594Z"/>
  </g>
  <defs>
    <linearGradient id="b" x1="44.713" x2="44.713" y1="0" y2="102" gradientUnits="userSpaceOnUse">
      <stop stop-color="#20BDFF"/>
      <stop offset="1" stop-color="#20E9FF"/>
    </linearGradient>
    <clipPath id="a">
      <path fill="#fff" d="M0 0h424.367v102H0z"/>
    </clipPath>
  </defs>
</svg>
